<?xml version="1.0"?>
<svg version="1.1" xmlns="http://www.w3.org/2000/svg" width="180px" height="70px" style=""><path fill="#ffffff" d="M18.359375,52.5q0,3.359375-2.333984375,5.1171875t-6.982421875,1.7578125q-2.3828125,0-4.0625-0.322265625t-3.14453125-0.947265625l0-4.921875q1.66015625,0.78125,3.740234375,1.30859375t3.662109375,0.52734375q3.2421875,0,3.2421875-1.875q0-0.703125-0.4296875-1.142578125t-1.484375-0.99609375t-2.8125-1.298828125q-2.51953125-1.0546875-3.701171875-1.953125t-1.71875-2.060546875t-0.537109375-2.861328125q0-2.91015625,2.255859375-4.501953125t6.396484375-1.591796875q3.9453125,0,7.67578125,1.71875l-1.796875,4.296875q-1.640625-0.703125-3.06640625-1.15234375t-2.91015625-0.44921875q-2.63671875,0-2.63671875,1.42578125q0,0.80078125,0.849609375,1.38671875t3.720703125,1.73828125q2.55859375,1.03515625,3.75,1.93359375t1.7578125,2.0703125t0.56640625,2.79296875z M45.9134765625,58.984375l-5.95703125,0l0-12.75390625q0-4.7265625-3.515625-4.7265625q-2.5,0-3.61328125,1.69921875t-1.11328125,5.5078125l0,10.2734375l-5.95703125,0l0-30.390625l5.95703125,0l0,6.19140625q0,0.72265625-0.13671875,3.3984375l-0.13671875,1.7578125l0.3125,0q1.9921875-3.203125,6.328125-3.203125q3.84765625,0,5.83984375,2.0703125t1.9921875,5.9375l0,14.23828125z M59.541796875,48.02734375q0,3.2421875,1.064453125,4.90234375t3.466796875,1.66015625q2.3828125,0,3.427734375-1.650390625t1.044921875-4.912109375q0-3.2421875-1.0546875-4.86328125t-3.45703125-1.62109375q-2.3828125,0-3.4375,1.611328125t-1.0546875,4.873046875z M74.639453125,48.02734375q0,5.33203125-2.8125,8.33984375t-7.83203125,3.0078125q-3.14453125,0-5.546875-1.376953125t-3.69140625-3.955078125t-1.2890625-6.015625q0-5.3515625,2.79296875-8.3203125t7.8515625-2.96875q3.14453125,0,5.546875,1.3671875t3.69140625,3.92578125t1.2890625,5.99609375z M94.3029296875,59.375q-3.84765625,0-6.03515625-2.79296875l-0.3125,0q0.3125,2.734375,0.3125,3.1640625l0,8.84765625l-5.95703125,0l0-31.4453125l4.84375,0l0.83984375,2.83203125l0.2734375,0q2.08984375-3.2421875,6.19140625-3.2421875q3.8671875,0,6.0546875,2.98828125t2.1875,8.30078125q0,3.49609375-1.025390625,6.07421875t-2.919921875,3.92578125t-4.453125,1.34765625z M92.5451171875,41.50390625q-2.20703125,0-3.22265625,1.357421875t-1.0546875,4.482421875l0,0.64453125q0,3.515625,1.044921875,5.0390625t3.310546875,1.5234375q4.00390625,0,4.00390625-6.6015625q0-3.22265625-0.986328125-4.833984375t-3.095703125-1.611328125z"/><path fill="#fa397a" d="M113.19140625,49.84375l0-1.8359375q0-0.99609375,0.048828125-2.822265625t0.126953125-4.00390625t0.21484375-4.541015625t0.3125-4.462890625t0.419921875-3.759765625t0.556640625-2.4609375q0.1953125-0.44921875,0.64453125-0.56640625t0.87890625-0.1171875q0.68359375,0,1.201171875,0.302734375t0.517578125,1.103515625l-0.3515625,0.390625q-0.68359375,4.51171875-0.87890625,9.0625t-0.2734375,9.1015625q0.48828125-0.76171875,1.103515625-1.494140625t1.3671875-1.298828125t1.62109375-0.908203125t1.904296875-0.341796875q1.328125,0,2.197265625,0.80078125t1.435546875,2.080078125t0.83984375,2.861328125t0.419921875,3.1640625t0.205078125,2.998046875t0.17578125,2.353515625q-0.37109375,0.5078125-1.09375,0.5078125l-0.05859375,0q-0.3125,0-0.68359375-0.078125t-0.48828125-0.390625l0.0390625,0.0390625q-0.2734375-0.60546875-0.37109375-1.748046875t-0.15625-2.51953125t-0.205078125-2.822265625t-0.439453125-2.6171875t-0.859375-1.93359375t-1.5234375-0.80078125l-0.1171875,0q-1.15234375,0-1.93359375,0.703125q-0.8203125,0.7421875-1.328125,1.953125t-0.78125,2.6953125t-0.419921875,2.861328125t-0.224609375,2.5t-0.1953125,1.650390625q-0.1171875,0.44921875-0.693359375,0.595703125t-0.986328125,0.146484375q-0.95703125,0-1.5625-0.546875q-0.44921875-1.07421875-0.52734375-2.67578125t-0.078125-3.125z M131.8763671875,48.515625q0-1.3671875,0.302734375-3.22265625t1.025390625-3.515625t1.904296875-2.822265625t2.978515625-1.162109375q1.6796875,0,2.51953125,0.966796875t0.83984375,2.607421875q0,1.07421875-0.400390625,2.353515625t-1.142578125,2.421875t-1.7578125,1.904296875t-2.265625,0.76171875l-0.5078125-0.0390625q0,0.52734375,0.15625,1.416015625t0.458984375,1.767578125t0.78125,1.54296875t1.162109375,0.6640625q0.99609375,0,1.9140625-0.80078125t1.73828125-1.77734375t1.5234375-1.77734375t1.2890625-0.80078125q0.3125,0,0.64453125,0.09765625t0.37109375,0.546875q0,0.2734375-0.146484375,0.44921875t-0.263671875,0.390625q-0.60546875,1.03515625-1.318359375,1.97265625t-1.611328125,1.69921875t-1.962890625,1.201171875t-2.353515625,0.439453125q-1.6796875,0-2.79296875-0.595703125t-1.796875-1.6015625t-0.986328125-2.32421875t-0.302734375-2.763671875z M135.3724609375,47.03125l0.546875,0.48828125q0.390625,0.3515625,0.78125,0.15625t0.703125-0.712890625t0.576171875-1.279296875t0.46875-1.5625t0.302734375-1.5625t0.09765625-1.26953125l0-0.6640625t-0.05859375-0.703125t-0.205078125-0.556640625t-0.458984375-0.283203125q-0.09765625-0.01953125-0.17578125-0.01953125q-0.6640625,0-1.1328125,0.83984375q-0.5078125,0.9375-0.8203125,2.275390625t-0.44921875,2.744140625t-0.17578125,2.109375z M148.198046875,42.24609375q0-0.80078125,0.283203125-1.34765625t1.201171875-0.546875q0.3515625,0,0.87890625,0.107421875t0.60546875,0.537109375q0.1953125,1.15234375,0.21484375,2.5t0.13671875,2.5390625q0.44921875-0.87890625,1.15234375-1.89453125t1.6015625-1.875t1.953125-1.42578125t2.1484375-0.56640625q0.078125,0,0.29296875,0.05859375t0.400390625,0.166015625t0.224609375,0.244140625t-0.21484375,0.25390625q-0.078125,0.234375-0.33203125,0.283203125t-0.44921875,0.048828125q-0.1171875,0-0.37109375-0.09765625q-1.4453125,0.76171875-2.4609375,2.0703125t-1.66015625,2.900390625t-0.9375,3.359375t-0.29296875,3.447265625q0,0.83984375-0.380859375,1.015625t-1.220703125,0.17578125q-0.44921875,0-0.947265625-0.09765625t-0.693359375-0.625q-0.3515625-1.11328125-0.576171875-2.55859375t-0.341796875-2.978515625t-0.166015625-3.017578125t-0.048828125-2.67578125z M162.0783203125,48.515625q0-1.3671875,0.302734375-3.22265625t1.025390625-3.515625t1.904296875-2.822265625t2.978515625-1.162109375q1.6796875,0,2.51953125,0.966796875t0.83984375,2.607421875q0,1.07421875-0.400390625,2.353515625t-1.142578125,2.421875t-1.7578125,1.904296875t-2.265625,0.76171875l-0.5078125-0.0390625q0,0.52734375,0.15625,1.416015625t0.458984375,1.767578125t0.78125,1.54296875t1.162109375,0.6640625q0.99609375,0,1.9140625-0.80078125t1.73828125-1.77734375t1.5234375-1.77734375t1.2890625-0.80078125q0.3125,0,0.64453125,0.09765625t0.37109375,0.546875q0,0.2734375-0.146484375,0.44921875t-0.263671875,0.390625q-0.60546875,1.03515625-1.318359375,1.97265625t-1.611328125,1.69921875t-1.962890625,1.201171875t-2.353515625,0.439453125q-1.6796875,0-2.79296875-0.595703125t-1.796875-1.6015625t-0.986328125-2.32421875t-0.302734375-2.763671875z M165.5744140625,47.03125l0.546875,0.48828125q0.390625,0.3515625,0.78125,0.15625t0.703125-0.712890625t0.576171875-1.279296875t0.46875-1.5625t0.302734375-1.5625t0.09765625-1.26953125l0-0.6640625t-0.05859375-0.703125t-0.205078125-0.556640625t-0.458984375-0.283203125q-0.09765625-0.01953125-0.17578125-0.01953125q-0.6640625,0-1.1328125,0.83984375q-0.5078125,0.9375-0.8203125,2.275390625t-0.44921875,2.744140625t-0.17578125,2.109375z"/></svg>
